<svg id="Layer_1" data-name="Layer 1" xmlns="http://www.w3.org/2000/svg" viewBox="0 0 100 100"><defs><style>.cls-3{fill:#727172}.cls-5{fill:#fff}</style></defs><path fill="none" d="M0 0h100v100H0z"/><path d="M462.82 123.83c3.57 0 5.42-5 5.42-7.23s-.06-6.63-5.42-6.63-5.42 4.39-5.42 6.63 1.85 7.23 5.42 7.23zm8.92 2.34a57.48 57.48 0 00-5.35-2.68s-.45 1.54-3.57 1.54-3.57-1.54-3.57-1.54a57.48 57.48 0 00-5.35 2.68c-1.34.89-1.91 5.49-1.91 5.49h21.67s-.34-4.44-1.92-5.49z" transform="translate(-434.22 -72.96)" fill-rule="evenodd" fill="#727172"/><path class="cls-3" d="M511.08 147h-53a12.26 12.26 0 01-12.25-12.25V112.1a12.26 12.26 0 0112.27-12.25h53a12.27 12.27 0 0112.25 12.25v22.6a12.27 12.27 0 01-12.27 12.3zm-53-43.62a8.78 8.78 0 00-8.77 8.77v22.6a8.78 8.78 0 008.77 8.77h53a8.78 8.78 0 008.77-8.77V112.1a8.78 8.78 0 00-8.77-8.77h-53z" transform="translate(-434.22 -72.96)"/><path class="cls-3" d="M511.93 113.66h-32.77a1.74 1.74 0 110-3.48h32.76a1.74 1.74 0 11.01 3.48zM497 120.88h-17.84a1.74 1.74 0 110-3.48H497a1.74 1.74 0 010 3.48zm10.4 7.22h-28.24a1.74 1.74 0 110-3.48h28.24a1.74 1.74 0 110 3.48zm-16.53 7.21h-11.7a1.74 1.74 0 110-3.48h11.7a1.74 1.74 0 010 3.48z" transform="translate(-434.22 -72.96)"/><circle cx="77.2" cy="65.34" r="14.08" fill="#9dcc45"/><path class="cls-5" d="M511.42 121.55a16.75 16.75 0 1016.75 16.75 16.77 16.77 0 00-16.75-16.75zm0 30.83a14.08 14.08 0 1114.08-14.08 14.08 14.08 0 01-14.08 14.09z" transform="translate(-434.22 -72.96)"/><path class="cls-5" d="M518.34 135.54a.83.83 0 01-.25.61l-6.47 6.46-1.21 1.21a.86.86 0 01-1.21 0l-1.2-1.21-3.23-3.23a.86.86 0 010-1.21L506 137a.86.86 0 011.21 0l2.63 2.63 5.86-5.87a.86.86 0 011.21 0l1.21 1.21a.83.83 0 01.22.57z" transform="translate(-434.22 -72.96)"/></svg>